<mxfile modified="2023-06-19T23:30:30.706Z" host="app.diagrams.net" agent="Mozilla/5.0 (Windows NT 10.0; Win64; x64) AppleWebKit/537.36 (KHTML, like Gecko) Chrome/114.0.0.0 Safari/537.36" etag="qAKtH7ErNY8l6BGItf_r" version="21.3.8" type="github">
  <diagram id="d1ab7348-05c3-a1e3-ca4d-12c340fd6b49" name="Page-1">
    <mxGraphModel dx="880" dy="490" grid="1" gridSize="10" guides="1" tooltips="1" connect="1" arrows="1" fold="1" page="1" pageScale="1" pageWidth="1169" pageHeight="827" background="none" math="0" shadow="0">
      <root>
        <mxCell id="0" />
        <mxCell id="1" parent="0" />
        <mxCell id="2" value="" style="fillColor=#F6F6F6;strokeColor=none;shadow=0;gradientColor=none;fontSize=14;align=left;spacing=10;fontColor=#717171;9E9E9E;verticalAlign=top;spacingTop=-4;fontStyle=0;spacingLeft=40;html=1;" parent="1" vertex="1">
          <mxGeometry x="228.5" y="45" width="431.5" height="520" as="geometry" />
        </mxCell>
        <mxCell id="371" value="Base de datos" style="rounded=1;absoluteArcSize=1;arcSize=2;html=1;strokeColor=#4284F3;gradientColor=none;shadow=0;dashed=1;fontSize=12;fontColor=#9E9E9E;align=left;verticalAlign=top;spacing=10;spacingTop=-4;fillColor=none;dashPattern=1 2;strokeWidth=2;" parent="1" vertex="1">
          <mxGeometry x="330" y="475" width="170" height="170" as="geometry" />
        </mxCell>
        <mxCell id="341" value="Droplet" style="rounded=1;absoluteArcSize=1;arcSize=2;html=1;strokeColor=#4284F3;gradientColor=none;shadow=0;dashed=1;fontSize=12;fontColor=#9E9E9E;align=left;verticalAlign=top;spacing=10;spacingTop=-4;fillColor=none;dashPattern=1 2;strokeWidth=2;" parent="1" vertex="1">
          <mxGeometry x="230" y="95" width="378.5" height="210" as="geometry" />
        </mxCell>
        <mxCell id="398" style="edgeStyle=orthogonalEdgeStyle;rounded=0;html=1;dashed=0;labelBackgroundColor=none;startArrow=none;startFill=0;startSize=4;endArrow=blockThin;endFill=1;endSize=4;strokeColor=#4284F3;strokeWidth=2;fontSize=12;" parent="1" source="359" edge="1">
          <mxGeometry relative="1" as="geometry">
            <Array as="points">
              <mxPoint x="328.5" y="215" />
              <mxPoint x="328.5" y="215" />
            </Array>
            <mxPoint x="328.5" y="220" as="targetPoint" />
          </mxGeometry>
        </mxCell>
        <mxCell id="359" value="" style="shape=mxgraph.gcp2.doubleRect;strokeColor=#dddddd;fillColor=#ffffff;shadow=1;strokeWidth=1;fontSize=12;fontColor=#9E9E9E;align=center;html=1;" parent="1" vertex="1">
          <mxGeometry x="248.5" y="121" width="160" height="68" as="geometry" />
        </mxCell>
        <mxCell id="399" style="edgeStyle=orthogonalEdgeStyle;rounded=0;html=1;dashed=0;labelBackgroundColor=none;startArrow=none;startFill=0;startSize=4;endArrow=blockThin;endFill=1;endSize=4;strokeColor=#4284F3;strokeWidth=2;fontSize=12;" parent="1" source="341" target="363" edge="1">
          <mxGeometry relative="1" as="geometry">
            <mxPoint x="398.5" y="255" as="sourcePoint" />
          </mxGeometry>
        </mxCell>
        <mxCell id="400" style="edgeStyle=orthogonalEdgeStyle;rounded=0;html=1;exitX=0.5;exitY=1;dashed=0;labelBackgroundColor=none;startArrow=none;startFill=0;startSize=4;endArrow=blockThin;endFill=1;endSize=4;strokeColor=#4284F3;strokeWidth=2;fontSize=12;" parent="1" source="363" target="369" edge="1">
          <mxGeometry relative="1" as="geometry" />
        </mxCell>
        <mxCell id="363" value="" style="strokeColor=#dddddd;fillColor=#ffffff;shadow=1;strokeWidth=1;rounded=1;absoluteArcSize=1;arcSize=2;fontSize=12;fontColor=#9E9E9E;align=center;html=1;" parent="1" vertex="1">
          <mxGeometry x="430.5" y="220" width="168" height="70" as="geometry" />
        </mxCell>
        <mxCell id="364" value="&lt;font color=&quot;#000000&quot;&gt;Processing&lt;/font&gt;&lt;br&gt;Cloud Dataflow&lt;hr&gt;&lt;font style=&quot;font-size: 11px&quot;&gt;Transaction Streams&lt;/font&gt;" style="dashed=0;connectable=0;html=1;fillColor=#5184F3;strokeColor=none;shape=mxgraph.gcp2.hexIcon;prIcon=cloud_dataflow;part=1;labelPosition=right;verticalLabelPosition=middle;align=left;verticalAlign=top;spacingLeft=5;fontColor=#999999;fontSize=12;spacingTop=-8;" parent="363" vertex="1">
          <mxGeometry width="44" height="39" relative="1" as="geometry">
            <mxPoint x="5" y="7" as="offset" />
          </mxGeometry>
        </mxCell>
        <mxCell id="403" style="edgeStyle=orthogonalEdgeStyle;rounded=0;html=1;dashed=0;labelBackgroundColor=none;startArrow=none;startFill=0;startSize=4;endArrow=blockThin;endFill=1;endSize=4;strokeColor=#4284F3;strokeWidth=2;fontSize=12;exitX=0.35;exitY=1.071;exitDx=0;exitDy=0;exitPerimeter=0;entryX=0.5;entryY=0;entryDx=0;entryDy=0;" parent="1" target="371" edge="1" source="369">
          <mxGeometry relative="1" as="geometry">
            <Array as="points">
              <mxPoint x="490" y="435" />
              <mxPoint x="420" y="435" />
              <mxPoint x="420" y="475" />
            </Array>
            <mxPoint x="398.5" y="435" as="sourcePoint" />
          </mxGeometry>
        </mxCell>
        <mxCell id="369" value="" style="strokeColor=#dddddd;fillColor=#ffffff;shadow=1;strokeWidth=1;rounded=1;absoluteArcSize=1;arcSize=2;fontSize=12;fontColor=#9E9E9E;align=center;html=1;" parent="1" vertex="1">
          <mxGeometry x="433" y="335" width="163" height="70" as="geometry" />
        </mxCell>
        <mxCell id="370" value="&lt;font color=&quot;#000000&quot;&gt;Processed Events&lt;/font&gt;&lt;br&gt;Cloud Bigtable&lt;hr&gt;&lt;font style=&quot;font-size: 11px&quot;&gt;Events Time Series&lt;/font&gt;" style="dashed=0;connectable=0;html=1;fillColor=#5184F3;strokeColor=none;shape=mxgraph.gcp2.hexIcon;prIcon=cloud_bigtable;part=1;labelPosition=right;verticalLabelPosition=middle;align=left;verticalAlign=top;spacingLeft=5;fontColor=#999999;fontSize=12;spacingTop=-8;" parent="369" vertex="1">
          <mxGeometry width="44" height="39" relative="1" as="geometry">
            <mxPoint x="5" y="7" as="offset" />
          </mxGeometry>
        </mxCell>
        <mxCell id="kALYX3asqiV95KRrsZR_-412" value="" style="shape=image;imageAspect=0;aspect=fixed;verticalLabelPosition=bottom;verticalAlign=top;image=https://consent.trustarc.com/v2/asset/20:55:23.714y33gof_DO_Logo-Blue.png;" parent="1" vertex="1">
          <mxGeometry x="260" y="50" width="203.48" height="45" as="geometry" />
        </mxCell>
        <mxCell id="kALYX3asqiV95KRrsZR_-418" value="" style="edgeStyle=orthogonalEdgeStyle;rounded=0;orthogonalLoop=1;jettySize=auto;html=1;fontColor=#007FFF;labelBackgroundColor=#007FFF;strokeColor=#007FFF;strokeWidth=2;" parent="1" source="kALYX3asqiV95KRrsZR_-413" target="kALYX3asqiV95KRrsZR_-414" edge="1">
          <mxGeometry relative="1" as="geometry" />
        </mxCell>
        <mxCell id="kALYX3asqiV95KRrsZR_-413" value="" style="sketch=0;outlineConnect=0;fontColor=#232F3E;gradientColor=none;fillColor=#232F3D;strokeColor=none;dashed=0;verticalLabelPosition=bottom;verticalAlign=top;align=center;html=1;fontSize=12;fontStyle=0;aspect=fixed;pointerEvents=1;shape=mxgraph.aws4.user;" parent="1" vertex="1">
          <mxGeometry x="10" y="140" width="60" height="60" as="geometry" />
        </mxCell>
        <mxCell id="kALYX3asqiV95KRrsZR_-416" style="edgeStyle=orthogonalEdgeStyle;rounded=0;orthogonalLoop=1;jettySize=auto;html=1;exitX=0.95;exitY=0.5;exitDx=0;exitDy=0;exitPerimeter=0;entryX=-0.003;entryY=0.433;entryDx=0;entryDy=0;entryPerimeter=0;strokeColor=#4284f3;strokeWidth=2;" parent="1" source="kALYX3asqiV95KRrsZR_-414" target="341" edge="1">
          <mxGeometry relative="1" as="geometry">
            <Array as="points">
              <mxPoint x="190" y="200" />
              <mxPoint x="210" y="200" />
              <mxPoint x="210" y="186" />
            </Array>
          </mxGeometry>
        </mxCell>
        <mxCell id="kALYX3asqiV95KRrsZR_-414" value="" style="outlineConnect=0;dashed=0;verticalLabelPosition=bottom;verticalAlign=top;align=center;html=1;shape=mxgraph.aws3.http_protocol;fillColor=#5294CF;gradientColor=none;" parent="1" vertex="1">
          <mxGeometry x="130.5" y="154" width="63" height="66" as="geometry" />
        </mxCell>
        <mxCell id="kALYX3asqiV95KRrsZR_-417" value="" style="image;aspect=fixed;perimeter=ellipsePerimeter;html=1;align=center;shadow=0;dashed=0;spacingTop=3;image=img/lib/active_directory/databases.svg;" parent="1" vertex="1">
          <mxGeometry x="372" y="540" width="58.5" height="57.33" as="geometry" />
        </mxCell>
        <mxCell id="nxI15AAKWFtH6_1bC97I-412" value="/www.cotizacion-dolar.com.ar" style="swimlane;whiteSpace=wrap;html=1;" vertex="1" parent="1">
          <mxGeometry x="740" y="189" width="180" height="175" as="geometry" />
        </mxCell>
        <mxCell id="nxI15AAKWFtH6_1bC97I-413" value="" style="rounded=0;whiteSpace=wrap;html=1;" vertex="1" parent="nxI15AAKWFtH6_1bC97I-412">
          <mxGeometry x="30" y="44" width="120" height="36" as="geometry" />
        </mxCell>
        <mxCell id="nxI15AAKWFtH6_1bC97I-414" value="Cotización" style="text;html=1;strokeColor=none;fillColor=none;align=center;verticalAlign=middle;whiteSpace=wrap;rounded=0;" vertex="1" parent="nxI15AAKWFtH6_1bC97I-412">
          <mxGeometry x="30" y="47" width="120" height="30" as="geometry" />
        </mxCell>
        <mxCell id="nxI15AAKWFtH6_1bC97I-418" value="" style="rounded=0;whiteSpace=wrap;html=1;" vertex="1" parent="nxI15AAKWFtH6_1bC97I-412">
          <mxGeometry x="30" y="129" width="120" height="36" as="geometry" />
        </mxCell>
        <mxCell id="nxI15AAKWFtH6_1bC97I-416" value="Cotización" style="text;html=1;strokeColor=none;fillColor=none;align=center;verticalAlign=middle;whiteSpace=wrap;rounded=0;" vertex="1" parent="nxI15AAKWFtH6_1bC97I-412">
          <mxGeometry x="30" y="132" width="120" height="30" as="geometry" />
        </mxCell>
        <mxCell id="nxI15AAKWFtH6_1bC97I-417" value="" style="rounded=0;whiteSpace=wrap;html=1;" vertex="1" parent="1">
          <mxGeometry x="770" y="275" width="120" height="36" as="geometry" />
        </mxCell>
        <mxCell id="nxI15AAKWFtH6_1bC97I-415" value="Cotización" style="text;html=1;strokeColor=none;fillColor=none;align=center;verticalAlign=middle;whiteSpace=wrap;rounded=0;" vertex="1" parent="1">
          <mxGeometry x="770" y="278" width="120" height="30" as="geometry" />
        </mxCell>
        <mxCell id="nxI15AAKWFtH6_1bC97I-433" style="edgeStyle=orthogonalEdgeStyle;rounded=0;orthogonalLoop=1;jettySize=auto;html=1;entryX=0.994;entryY=0.386;entryDx=0;entryDy=0;entryPerimeter=0;strokeColor=#007FFF;strokeWidth=2;startArrow=classic;startFill=1;" edge="1" parent="1" source="nxI15AAKWFtH6_1bC97I-419" target="nxI15AAKWFtH6_1bC97I-421">
          <mxGeometry relative="1" as="geometry" />
        </mxCell>
        <mxCell id="nxI15AAKWFtH6_1bC97I-419" value="" style="outlineConnect=0;dashed=0;verticalLabelPosition=bottom;verticalAlign=top;align=center;html=1;shape=mxgraph.aws3.http_protocol;fillColor=#5294CF;gradientColor=none;" vertex="1" parent="1">
          <mxGeometry x="700" y="220" width="63" height="66" as="geometry" />
        </mxCell>
        <mxCell id="nxI15AAKWFtH6_1bC97I-421" value="" style="strokeColor=#dddddd;fillColor=#ffffff;shadow=1;strokeWidth=1;rounded=1;absoluteArcSize=1;arcSize=2;fontSize=12;fontColor=#9E9E9E;align=center;html=1;" vertex="1" parent="1">
          <mxGeometry x="428" y="110" width="168" height="70" as="geometry" />
        </mxCell>
        <mxCell id="nxI15AAKWFtH6_1bC97I-420" value="" style="shape=image;html=1;verticalAlign=top;verticalLabelPosition=bottom;labelBackgroundColor=#ffffff;imageAspect=0;aspect=fixed;image=https://cdn4.iconfinder.com/data/icons/scripting-and-programming-languages/512/660277-Python_logo-128.png" vertex="1" parent="1">
          <mxGeometry x="440" y="80" width="88" height="88" as="geometry" />
        </mxCell>
        <mxCell id="nxI15AAKWFtH6_1bC97I-423" value="Web scraping" style="text;html=1;strokeColor=none;fillColor=none;align=center;verticalAlign=middle;whiteSpace=wrap;rounded=0;" vertex="1" parent="1">
          <mxGeometry x="424" y="140" width="120" height="30" as="geometry" />
        </mxCell>
        <mxCell id="nxI15AAKWFtH6_1bC97I-424" value="" style="dashed=0;outlineConnect=0;html=1;align=center;labelPosition=center;verticalLabelPosition=bottom;verticalAlign=top;shape=mxgraph.weblogos.wordpress;fillColor=#00A7DA;strokeColor=none" vertex="1" parent="1">
          <mxGeometry x="260" y="131.6" width="40" height="36.4" as="geometry" />
        </mxCell>
        <mxCell id="nxI15AAKWFtH6_1bC97I-430" value="" style="edgeStyle=orthogonalEdgeStyle;rounded=0;orthogonalLoop=1;jettySize=auto;html=1;strokeColor=#007FFF;strokeWidth=2;" edge="1" parent="1" source="nxI15AAKWFtH6_1bC97I-429" target="363">
          <mxGeometry relative="1" as="geometry" />
        </mxCell>
        <mxCell id="nxI15AAKWFtH6_1bC97I-429" value="" style="shape=image;verticalLabelPosition=bottom;labelBackgroundColor=default;verticalAlign=top;aspect=fixed;imageAspect=0;image=https://static-00.iconduck.com/assets.00/csv-icon-448x512-rkoi7crs.png;" vertex="1" parent="1">
          <mxGeometry x="296.07" y="223.65" width="54.87" height="62.71" as="geometry" />
        </mxCell>
      </root>
    </mxGraphModel>
  </diagram>
</mxfile>
